<?xml version="1.0" encoding="utf-8"?>
<svg viewBox="0 0 100 100" xmlns="http://www.w3.org/2000/svg">
  <g transform="matrix(1, 0, 0, 1, 16.985687, 2.230972)">
    <g>
      <path d="M 54.3 33.5 C 54.3 33.5 54.3 33.5 54.3 33.5 C 48.5 27.7 39 27.5 33 33.2 C 27 27.6 17.6 27.7 11.7 33.5 C 5.8 39.4 5.7 49 11.6 55 C 11.6 55 11.7 55.1 11.7 55.1 L 29 72.4 C 30.1 73.5 31.6 74.1 33 74.1 C 34.5 74.1 35.9 73.5 37 72.4 L 54.2 55.2 C 54.2 55.2 54.2 55.2 54.3 55.1 C 60.2 49.1 60.2 39.5 54.3 33.5 Z M 51.6 52.4 C 51.6 52.4 51.5 52.5 51.5 52.5 L 34.3 69.6 C 33.6 70.3 32.4 70.3 31.7 69.6 L 14.6 52.5 C 14.6 52.5 14.5 52.4 14.5 52.4 C 14.5 52.4 14.5 52.4 14.5 52.4 C 10.1 48 10.1 40.7 14.5 36.3 C 18.9 31.9 26.1 31.9 30.6 36.3 C 30.6 36.3 30.6 36.3 30.6 36.3 C 30.6 36.3 30.6 36.3 30.7 36.4 L 31.7 37.4 C 32.1 37.8 32.6 38 33.1 38 C 33.1 38 33.1 38 33.1 38 C 33.6 38 34.1 37.8 34.5 37.4 L 35.4 36.5 C 35.4 36.5 35.5 36.4 35.5 36.4 C 35.5 36.4 35.5 36.4 35.5 36.4 C 39.9 32 47.1 32 51.6 36.4 C 56 40.7 56 47.9 51.6 52.4 Z" style=""/>
      <path d="M 71.654 57.454 C 71.554 57.554 54.354 74.754 54.354 74.754 C 53.175 75.907 51.598 76.6 50 76.6 C 48.507 76.6 46.83 75.909 45.646 74.754 L 28.243 57.351 C 25.237 54.262 23.699 50.185 23.725 46.209 C 23.751 42.233 25.343 38.18 28.349 35.143 C 31.385 32.188 35.382 30.626 39.306 30.575 C 43.231 30.524 46.959 31.877 49.997 34.526 C 53.086 31.621 56.796 30.474 60.733 30.538 C 64.671 30.601 68.671 32.193 71.657 35.149 C 74.662 38.236 76.225 42.312 76.225 46.3 C 76.225 50.288 74.659 54.367 71.654 57.454 Z M 75.225 46.3 C 75.225 42.488 73.838 38.764 70.943 35.851 C 68.129 33.007 64.479 31.599 60.717 31.537 C 56.954 31.476 53.256 32.767 50.344 35.563 L 50.003 35.89 L 49.659 35.566 C 46.745 32.818 43.069 31.526 39.319 31.575 C 35.568 31.624 31.917 33.01 29.052 35.855 C 26.159 38.718 24.749 42.417 24.725 46.216 C 24.701 50.015 26.063 53.738 28.957 56.649 L 46.354 74.046 C 47.37 75.091 48.693 75.6 50 75.6 C 51.402 75.6 52.625 75.093 53.646 74.046 C 53.646 74.046 70.846 56.846 70.946 56.746 C 73.841 53.833 75.225 50.112 75.225 46.3 Z M 68.954 54.754 L 68.853 54.855 L 51.654 71.954 C 51.213 72.361 50.561 72.625 50 72.625 C 49.439 72.625 48.787 72.361 48.346 71.954 L 31.146 54.754 C 28.889 52.465 27.7 49.363 27.7 46.35 C 27.7 43.337 28.873 40.219 31.146 37.946 C 33.419 35.674 36.511 34.5 39.513 34.5 C 42.513 34.5 45.617 35.691 47.954 37.946 C 47.954 37.946 48.954 38.946 49.054 39.046 C 49.384 39.377 49.693 39.5 50.1 39.5 C 50.507 39.5 50.83 39.391 51.146 39.046 L 52.146 38.046 C 54.435 35.789 57.511 34.6 60.513 34.6 C 63.513 34.6 66.613 35.787 68.95 38.042 C 71.208 40.282 72.4 43.336 72.4 46.325 C 72.4 49.313 71.209 52.417 68.954 54.754 Z M 71.4 46.325 C 71.4 43.514 70.392 40.818 68.251 38.758 C 66.087 36.613 63.337 35.6 60.513 35.6 C 57.689 35.6 54.965 36.611 52.854 38.754 L 51.854 39.754 C 51.37 40.209 50.693 40.5 50.1 40.5 C 49.507 40.5 48.816 40.223 48.346 39.754 C 48.246 39.654 47.246 38.654 47.246 38.654 C 45.083 36.509 42.337 35.5 39.513 35.5 C 36.689 35.5 33.981 36.526 31.854 38.654 C 29.727 40.781 28.7 43.513 28.7 46.35 C 28.7 49.187 29.711 51.935 31.854 54.046 L 49.054 71.246 C 49.313 71.539 49.611 71.625 50 71.625 C 50.389 71.625 50.687 71.539 50.946 71.246 L 68.147 54.146 L 68.246 54.046 C 70.391 51.883 71.4 49.137 71.4 46.325 Z" style="fill: none;"/>
      <path d="M 33 13 C 34.1 13 34.9 12.1 34.9 11.1 L 34.9 2.4 C 34.9 1.3 34 0.5 33 0.5 C 32 0.5 31.1 1.4 31.1 2.4 L 31.1 11.1 C 31.1 12.2 31.9 13 33 13 Z"/>
      <path d="M 5.5 23.3 C 5.9 23.7 6.4 23.9 6.9 23.9 C 7.4 23.9 7.9 23.7 8.3 23.3 C 9.1 22.5 9.1 21.3 8.3 20.6 L 2.2 14.5 C 1.4 13.7 0.2 13.7 -0.5 14.5 C -1.3 15.3 -1.3 16.5 -0.5 17.2 L 5.5 23.3 Z"/>
      <path d="M -3.9 46.1 L -12.6 46.1 C -13.7 46.1 -14.5 47 -14.5 48 C -14.5 49 -13.6 49.9 -12.6 49.9 L -3.9 49.9 C -2.8 49.9 -2 49 -2 48 C -2 47 -2.8 46.1 -3.9 46.1 Z"/>
      <path d="M 5.5 72.7 L -0.6 78.8 C -1.4 79.6 -1.4 80.8 -0.6 81.5 C -0.2 81.9 0.3 82.1 0.8 82.1 C 1.3 82.1 1.8 81.9 2.2 81.5 L 8.3 75.4 C 9.1 74.6 9.1 73.4 8.3 72.7 C 7.5 72 6.3 72 5.5 72.7 Z"/>
      <path d="M 33 83 C 31.9 83 31.1 83.9 31.1 84.9 L 31.1 93.6 C 31.1 94.7 32 95.5 33 95.5 C 34 95.5 34.9 94.6 34.9 93.6 L 34.9 84.9 C 34.9 83.8 34.1 83 33 83 Z"/>
      <path d="M 60.5 72.7 C 59.7 71.9 58.5 71.9 57.8 72.7 C 57 73.5 57 74.7 57.8 75.4 L 63.9 81.5 C 64.3 81.9 64.8 82.1 65.3 82.1 C 65.8 82.1 66.3 81.9 66.7 81.5 C 67.5 80.7 67.5 79.5 66.7 78.8 L 60.5 72.7 Z"/>
      <path d="M 78.6 46.1 L 69.9 46.1 C 68.8 46.1 68 47 68 48 C 68 49 68.9 49.9 69.9 49.9 L 78.6 49.9 C 79.7 49.9 80.5 49 80.5 48 C 80.5 47 79.6 46.1 78.6 46.1 Z"/>
      <path d="M 63.8 14.4 L 57.7 20.5 C 56.9 21.3 56.9 22.5 57.7 23.2 C 58.1 23.6 58.6 23.8 59.1 23.8 C 59.6 23.8 60.1 23.6 60.5 23.2 L 66.6 17.1 C 67.4 16.3 67.4 15.1 66.6 14.4 C 65.8 13.7 64.6 13.7 63.8 14.4 Z"/>
      <path style="fill: rgb(252,222,132);" d="M 51.612 52.137 C 51.612 52.137 51.512 52.237 51.512 52.237 L 34.312 69.337 C 33.612 70.037 32.412 70.037 31.712 69.337 L 14.612 52.237 C 14.612 52.237 14.512 52.137 14.512 52.137 C 14.512 52.137 14.512 52.137 14.512 52.137 C 10.112 47.737 10.112 40.437 14.512 36.037 C 18.912 31.637 26.112 31.637 30.612 36.037 C 30.612 36.037 30.612 36.037 30.612 36.037 C 30.612 36.037 30.612 36.037 30.712 36.137 L 31.712 37.137 C 32.112 37.537 32.612 37.737 33.112 37.737 C 33.112 37.737 33.112 37.737 33.112 37.737 C 33.612 37.737 34.112 37.537 34.512 37.137 L 35.412 36.237 C 35.412 36.237 35.512 36.137 35.512 36.137 C 35.512 36.137 35.512 36.137 35.512 36.137 C 39.912 31.737 47.112 31.737 51.612 36.137 C 56.012 40.437 56.012 47.637 51.612 52.137 Z"/>
    </g>
  </g>
</svg>